<?xml version="1.0" encoding="UTF-8"?>
<svg version="1.1" xmlns="http://www.w3.org/2000/svg" width="1037" height="398">
<path d="M0 0 C2.11115009 0.00028288 4.22230028 0.00012218 6.33345032 -0.0004425 C12.00157473 -0.00072657 17.66967749 0.00510628 23.33779693 0.01213145 C29.28479254 0.01843074 35.23178879 0.01897395 41.17878723 0.02015686 C52.41210403 0.02325094 63.64541097 0.03143813 74.87872344 0.04150635 C87.67940286 0.05272756 100.48008277 0.05819301 113.28076589 0.06320179 C139.58667815 0.07362258 165.89258168 0.09118437 192.19848633 0.11352539 C191.60415539 7.11934982 190.61295749 13.97476617 189.34082031 20.88745117 C189.15535645 21.91303635 188.96989258 22.93862152 188.77880859 23.99528503 C188.17111699 27.35048956 187.55789542 30.70465722 186.94458008 34.05883789 C186.51968145 36.39860917 186.09513123 38.73844376 185.6709137 41.07833862 C184.55813006 47.21092199 183.44063945 53.34263839 182.32214355 59.47418213 C181.17975549 65.74146412 180.04185271 72.00956022 178.90356445 78.27758789 C176.67291042 90.55703151 174.43727947 102.83556328 172.19848633 115.11352539 C170.53672159 115.11710792 170.53672159 115.11710792 168.84138584 115.12076283 C141.83028927 115.17967244 114.81928107 115.25562577 87.8082819 115.3492403 C74.74573132 115.39412169 61.68320754 115.43355392 48.62060547 115.45996094 C37.22941092 115.48300312 25.83830173 115.51647031 14.44717497 115.56222695 C8.42097345 115.58607542 2.39485603 115.60485896 -3.63139153 115.6111393 C-9.31541543 115.61722819 -14.9992244 115.63736413 -20.68316841 115.6678009 C-22.75782396 115.67652054 -24.83250768 115.68031648 -26.90718079 115.67853355 C-48.93289858 115.66559346 -70.02384952 117.81547522 -87.80151367 132.11352539 C-88.82631836 132.89469727 -88.82631836 132.89469727 -89.87182617 133.69165039 C-111.23830004 150.95240967 -120.86059266 180.65417668 -124.11401367 206.98852539 C-126.28184958 227.47168128 -123.96428544 248.6718401 -110.99291992 265.45336914 C-101.08274831 276.18767145 -87.15693197 281.52592677 -72.74097741 282.21152031 C-70.4134107 282.25506044 -68.08751144 282.26896712 -65.75953674 282.27174377 C-64.87150846 282.27668175 -63.98348018 282.28161973 -63.06854194 282.28670734 C-60.10526674 282.30201468 -57.14201309 282.31042456 -54.17871094 282.31884766 C-52.04962476 282.3284315 -49.92054046 282.33844188 -47.79145813 282.34884644 C-42.01934153 282.37584667 -36.24721679 282.39688265 -30.47507215 282.41684842 C-24.43990429 282.43873811 -18.40476137 282.4661122 -12.36961365 282.49290466 C-0.94466937 282.54279123 10.48028878 282.58774503 21.90526015 282.63092703 C34.9136558 282.6803339 47.92202643 282.73523924 60.93039787 282.79060662 C87.686404 282.9043647 114.44243414 283.01121717 141.19848633 283.11352539 C141.04919091 284.84774891 140.8974686 286.58176358 140.74475098 288.31568909 C140.66052635 289.28134072 140.57630173 290.24699236 140.48952484 291.24190617 C140.06854386 295.39564196 139.36294002 299.47497394 138.60473633 303.57836914 C138.37735779 304.83926109 138.37735779 304.83926109 138.14538574 306.12562561 C137.82823011 307.87956363 137.5088391 309.63309885 137.18725586 311.38623047 C136.69527009 314.06856046 136.20996642 316.75203421 135.72583008 319.43579102 C135.41501342 321.15005289 135.10382883 322.86424811 134.79223633 324.57836914 C134.57500916 325.77525612 134.57500916 325.77525612 134.35339355 326.99632263 C133.72850651 330.39836537 133.0624783 333.76451051 132.19848633 337.11352539 C106.42312955 337.18389934 80.64778737 337.23665168 54.87235355 337.26896191 C42.90184868 337.28436911 30.93140382 337.30533972 18.9609375 337.33984375 C8.51606544 337.36993576 -1.9287631 337.38914493 -12.37367731 337.39579087 C-17.89380033 337.39966991 -23.41379898 337.40865473 -28.93388176 337.43071556 C-73.95152026 337.60365178 -73.95152026 337.60365178 -93.80151367 334.11352539 C-94.49879766 333.99151166 -95.19608166 333.86949793 -95.91449547 333.74378681 C-99.51891287 333.09605102 -103.06517309 332.32951027 -106.61401367 331.42602539 C-107.63479004 331.17183838 -108.65556641 330.91765137 -109.70727539 330.65576172 C-136.60617473 323.66204789 -163.11171033 310.11235641 -177.95385742 285.64868164 C-196.38444756 253.72919009 -192.64963401 216.06533607 -183.55151367 181.73852539 C-171.85085839 139.68103006 -149.68078086 101.37140605 -110.87182617 79.27758789 C-82.44242425 63.78711926 -52.02573174 60.60493998 -20.15307617 60.82055664 C-17.67345439 60.82616926 -15.19382922 60.83043145 -12.71420288 60.8334198 C-6.26668708 60.84473759 0.18061785 60.8740884 6.62805176 60.90753174 C13.23874054 60.93851838 19.84946422 60.95198553 26.46020508 60.96704102 C39.37305416 60.99897377 52.2857589 61.04940955 65.19848633 61.11352539 C65.19848633 58.80352539 65.19848633 56.49352539 65.19848633 54.11352539 C50.68002557 54.17445642 36.16173306 54.25222853 21.64346695 54.3492403 C14.90010405 54.39392071 8.1567907 54.43339642 1.41333008 54.45996094 C-5.10964121 54.48620857 -11.63238876 54.52675848 -18.15522003 54.57671165 C-20.62831055 54.59323659 -23.10143963 54.60483938 -25.57457733 54.6111393 C-71.93599048 54.74104215 -113.07124213 67.17966304 -146.80151367 100.11352539 C-157.5405267 110.97300812 -165.68586384 123.66615325 -172.80151367 137.11352539 C-173.12474609 137.7205127 -173.44797852 138.3275 -173.78100586 138.95288086 C-184.41109621 159.26640177 -190.69543022 181.64842358 -194.80151367 204.11352539 C-195.04643555 205.36004883 -195.29135742 206.60657227 -195.54370117 207.89086914 C-200.43290125 237.12560659 -197.16178315 269.3701528 -179.80151367 294.11352539 C-176.40404418 298.37595319 -172.65273861 302.26230045 -168.80151367 306.11352539 C-167.98553711 306.92950195 -167.16956055 307.74547852 -166.32885742 308.58618164 C-132.73407976 340.43293835 -80.59664902 344.17078454 -36.79736328 344.31884766 C-34.96236465 344.32845619 -33.12736809 344.33846785 -31.29237366 344.34884644 C-26.36793103 344.37557992 -21.44347914 344.39675764 -16.51900554 344.41684842 C-11.35140394 344.43890571 -6.18382988 344.46619662 -1.01625061 344.49290466 C8.74380867 344.54256738 18.50388345 344.58760279 28.2639727 344.63092703 C39.38630172 344.68052708 50.50860309 344.73535984 61.63090527 344.79060662 C84.48673975 344.90402038 107.34260083 345.01094581 130.19848633 345.11352539 C130.04918223 346.84741758 129.8974619 348.5811018 129.74475098 350.31469727 C129.66052635 351.28016479 129.57630173 352.24563232 129.48952484 353.24035645 C129.06757949 357.40585424 128.36215933 361.49794793 127.60473633 365.61352539 C127.37735779 366.87797485 127.37735779 366.87797485 127.14538574 368.16796875 C126.82825486 369.92610644 126.50886403 371.68383792 126.18725586 373.44116211 C125.69467223 376.13437908 125.20971115 378.82888886 124.72583008 381.52368164 C124.41507213 383.24120922 124.10388977 384.95866008 123.79223633 386.67602539 C123.57500916 387.8806543 123.57500916 387.8806543 123.35339355 389.10961914 C122.78702022 392.19341106 122.19141136 395.1347503 121.19848633 398.11352539 C92.83298523 398.18223122 64.46749476 398.23519177 36.10192648 398.26672138 C32.73933757 398.27047269 29.37674882 398.27435573 26.01416016 398.27832031 C25.34483898 398.27910724 24.6755178 398.27989418 23.98591416 398.28070495 C13.20367822 398.29369462 2.42149115 398.31731217 -8.36071598 398.34498378 C-19.45642599 398.37321862 -30.55210936 398.38951548 -41.64785343 398.39579087 C-47.86661211 398.39967493 -54.08526061 398.40869299 -60.30398369 398.43071556 C-66.17839456 398.45134677 -72.05265174 398.45730644 -77.92709541 398.45284843 C-80.06291672 398.4536619 -82.19874414 398.45946665 -84.33453369 398.47114182 C-103.75737841 398.57194809 -123.53939017 397.43469764 -142.36401367 392.30102539 C-143.34885742 392.04240723 -144.33370117 391.78378906 -145.34838867 391.51733398 C-182.94299105 381.37539142 -216.73621438 359.25091945 -236.72338867 325.26196289 C-264.13713561 276.46389924 -261.33533301 219.66255794 -246.72045898 167.27856445 C-244.43789965 159.41695468 -241.81733928 151.72341505 -238.80151367 144.11352539 C-238.50696289 143.37021973 -238.21241211 142.62691406 -237.90893555 141.86108398 C-216.05363198 87.82467199 -172.29977053 43.22025283 -118.71655273 20.28735352 C-80.18003125 4.76946446 -41.27167892 -0.0787123 0 0 Z M82.19848633 54.11352539 C82.19848633 56.42352539 82.19848633 58.73352539 82.19848633 61.11352539 C87.47848633 61.11352539 92.75848633 61.11352539 98.19848633 61.11352539 C98.19848633 58.80352539 98.19848633 56.49352539 98.19848633 54.11352539 C92.91848633 54.11352539 87.63848633 54.11352539 82.19848633 54.11352539 Z M116.19848633 54.11352539 C116.19848633 56.42352539 116.19848633 58.73352539 116.19848633 61.11352539 C121.47848633 61.11352539 126.75848633 61.11352539 132.19848633 61.11352539 C132.19848633 58.80352539 132.19848633 56.49352539 132.19848633 54.11352539 C126.91848633 54.11352539 121.63848633 54.11352539 116.19848633 54.11352539 Z M150.19848633 54.11352539 C150.19848633 56.42352539 150.19848633 58.73352539 150.19848633 61.11352539 C155.14848633 61.11352539 160.09848633 61.11352539 165.19848633 61.11352539 C165.19848633 58.80352539 165.19848633 56.49352539 165.19848633 54.11352539 C160.24848633 54.11352539 155.29848633 54.11352539 150.19848633 54.11352539 Z " fill="#FFFFFF" transform="translate(257.801513671875,-0.113525390625)"/>
<path d="M0 0 C137.61 0 275.22 0 417 0 C416.3597462 7.68304558 415.6318602 14.98218661 414.25 22.51025391 C414.075896 23.4841507 413.90179199 24.45804749 413.72241211 25.4614563 C413.15374977 28.63417146 412.57708747 31.80536993 412 34.9765625 C411.59985835 37.19657267 411.20012539 39.41665654 410.80078125 41.6368103 C409.9670401 46.26518695 409.12952499 50.89285879 408.2890625 55.52001953 C407.21034587 61.45971323 406.13941705 67.40077838 405.07104492 73.34234047 C404.24823785 77.91511011 403.42226129 82.48730247 402.59521484 87.0593071 C402.19891807 89.25130582 401.80340817 91.44344695 401.40869141 93.63573074 C400.85889177 96.68562245 400.30504746 99.734751 399.75 102.78369141 C399.58685303 103.69272217 399.42370605 104.60175293 399.25561523 105.53833008 C399.10423096 106.36515289 398.95284668 107.19197571 398.796875 108.04385376 C398.66635742 108.76385874 398.53583984 109.48386372 398.40136719 110.22568703 C398 112 398 112 397 114 C349.48 114 301.96 114 253 114 C252.34 118.95 251.68 123.9 251 129 C250.55944668 131.74743449 250.09987205 134.49200773 249.60762024 137.23065186 C249.48173765 137.9362799 249.35585506 138.64190794 249.22615784 139.36891866 C248.81448324 141.67197871 248.39812823 143.97416427 247.98168945 146.27636719 C247.68032752 147.95664434 247.37926032 149.63697439 247.07846069 151.31735229 C246.2644951 155.85962738 245.44640312 160.40115032 244.62752557 164.94254208 C243.75264389 169.79860657 242.88158781 174.6553574 242.01005554 179.51202393 C240.53355732 187.73692736 239.05463929 195.96139251 237.57397461 204.18554688 C235.54391849 215.46122595 233.51794013 226.73763436 231.4929812 238.01422977 C225.53534717 271.18882031 219.56261743 304.36068654 213.57177734 337.52929688 C213.4083941 338.43387918 213.24501086 339.33846148 213.07667661 340.27045536 C209.7210279 358.84755686 206.35985565 377.42365873 203 396 C160.43 396 117.86 396 74 396 C74.60311891 389.96881091 75.20783432 384.28985521 76.27212524 378.37734985 C76.39715341 377.6766995 76.52218158 376.97604914 76.65099847 376.25416696 C77.06528927 373.93781829 77.48501937 371.62249113 77.90478516 369.30712891 C78.20604574 367.62922011 78.50696478 365.95124996 78.80757141 364.27322388 C79.62531257 359.71398064 80.44779276 355.15560363 81.27108049 350.59735918 C82.14909955 345.73113959 83.02258736 340.86410665 83.89657593 335.99716187 C85.56850763 326.69053377 87.24428287 317.38460218 88.92151678 308.07892835 C90.95064151 296.82007883 92.97551258 285.5604654 95 274.30078125 C95.72603926 270.2628351 96.45209352 266.22489165 97.17816162 262.18695068 C97.35759678 261.18901293 97.53703193 260.19107517 97.72190452 259.16289687 C98.80736024 253.12650933 99.89348128 247.09024192 100.98012614 241.05406833 C104.80153622 219.82625632 108.61219885 198.59659499 112.39746094 177.36230469 C112.57385156 176.37303915 112.75024219 175.38377361 112.93197799 174.36453032 C114.62018147 164.89638532 116.30743751 155.42807442 117.99038124 145.95899296 C118.59537684 142.55635307 119.20143613 139.15390322 119.80773783 135.75149584 C120.08734234 134.18086775 120.36644356 132.61014997 120.6450057 131.03933668 C121.02383558 128.90322741 121.40434314 126.76742347 121.7852478 124.63168335 C121.99709402 123.43975561 122.20894024 122.24782787 122.42720604 121.01978111 C122.87408067 118.66384923 123.41841434 116.32634264 124 114 C76.48 114 28.96 114 -20 114 C-13.65742732 75.94456391 -6.78206672 37.97957366 0 0 Z M5 52 C5 54.31 5 56.62 5 59 C10.28 59 15.56 59 21 59 C21 56.69 21 54.38 21 52 C15.72 52 10.44 52 5 52 Z M39 52 C39 54.31 39 56.62 39 59 C44.28 59 49.56 59 55 59 C55 56.69 55 54.38 55 52 C49.72 52 44.44 52 39 52 Z M72 52 C72 54.31 72 56.62 72 59 C77.28 59 82.56 59 88 59 C88 56.69 88 54.38 88 52 C82.72 52 77.44 52 72 52 Z M106 52 C106 54.31 106 56.62 106 59 C111.28 59 116.56 59 122 59 C122 56.69 122 54.38 122 52 C116.72 52 111.44 52 106 52 Z M140 52 C140 54.31 140 56.62 140 59 C145.28 59 150.56 59 156 59 C156 56.69 156 54.38 156 52 C150.72 52 145.44 52 140 52 Z M174 52 C174 54.31 174 56.62 174 59 C178.95 59 183.9 59 189 59 C189 56.69 189 54.38 189 52 C184.05 52 179.1 52 174 52 Z M207 52 C207 54.31 207 56.62 207 59 C212.28 59 217.56 59 223 59 C223 56.69 223 54.38 223 52 C217.72 52 212.44 52 207 52 Z M241 52 C241 54.31 241 56.62 241 59 C246.28 59 251.56 59 257 59 C257 56.69 257 54.38 257 52 C251.72 52 246.44 52 241 52 Z M275 52 C275 54.31 275 56.62 275 59 C280.28 59 285.56 59 291 59 C291 56.69 291 54.38 291 52 C285.72 52 280.44 52 275 52 Z M308 52 C308 54.31 308 56.62 308 59 C313.28 59 318.56 59 324 59 C324 56.69 324 54.38 324 52 C318.72 52 313.44 52 308 52 Z M342 52 C342 54.31 342 56.62 342 59 C347.28 59 352.56 59 358 59 C358 56.69 358 54.38 358 52 C352.72 52 347.44 52 342 52 Z M376 52 C376 54.31 376 56.62 376 59 C381.28 59 386.56 59 392 59 C392 56.69 392 54.38 392 52 C386.72 52 381.44 52 376 52 Z " fill="#FFFFFF" transform="translate(470,2)"/>
<path d="M0 0 C42.57 0 85.14 0 129 0 C126.70145603 16.08980778 126.70145603 16.08980778 125.2734375 23.6796875 C125.12089508 24.50332794 124.96835266 25.32696838 124.81118774 26.17556763 C124.33514526 28.7425533 123.8551654 31.30878272 123.375 33.875 C123.04661056 35.64187796 122.71848388 37.40880477 122.390625 39.17578125 C121.59677025 43.45108867 120.79938989 47.72572423 120 52 C115.38 52 110.76 52 106 52 C106 54.31 106 56.62 106 59 C109.96 59 113.92 59 118 59 C117.37668104 67.0813927 116.24858921 74.9329983 114.79223633 82.90307617 C114.5665758 84.15975286 114.34091528 85.41642956 114.10841656 86.71118736 C113.61576303 89.45432281 113.12010604 92.19689221 112.62208557 94.9390583 C111.80930204 99.4144134 111.00328009 103.89097243 110.19787598 108.36766052 C109.02420323 114.88725691 107.84729142 121.40626146 106.66812134 127.92486572 C104.79861704 138.26014222 102.93503369 148.59648106 101.07299805 158.93310547 C100.91549753 159.80741589 100.75799701 160.6817263 100.59572375 161.58253098 C99.9511866 165.16055411 99.30667455 168.73858177 98.66224962 172.31662512 C97.83866978 176.88933239 97.01487149 181.46200012 96.19060707 186.03458405 C91.10483798 214.24797166 86.05356217 242.46737527 81.02732873 270.69142842 C80.32910529 274.61190605 79.63061253 278.53233568 78.93212086 282.45276552 C75.88649755 299.5472803 72.84217456 316.642024 69.8041085 333.73788363 C68.54034447 340.84838403 67.27438004 347.95849054 66.00674641 355.06830209 C65.13078372 359.98200932 64.25745501 364.8961744 63.38619834 369.81071812 C62.85734229 372.79010494 62.32591542 375.76902864 61.79370344 378.74781764 C61.54918156 380.11940927 61.305733 381.49119274 61.06342757 382.86317766 C60.73539347 384.71972711 60.40319724 386.57553975 60.070755 388.43130493 C59.8868134 389.46573542 59.7028718 390.5001659 59.51335621 391.56594276 C59 394 59 394 58 396 C15.43 396 -27.14 396 -71 396 C-65.25741611 361.54449667 -65.25741611 361.54449667 -63.1262207 349.72851562 C-62.8743828 348.32412324 -62.62271074 346.91970111 -62.3711834 345.51525307 C-61.83698086 342.53445031 -61.30165134 339.5538533 -60.76534081 336.57342911 C-59.88825168 331.69918242 -59.01389754 326.82444694 -58.13972473 321.94967651 C-56.8650734 314.84325813 -55.58916395 307.73706666 -54.31231689 300.63104248 C-51.40347673 284.44238755 -48.49893693 268.25296082 -45.59415507 252.06357729 C-44.69361844 247.04458706 -43.7929943 242.02561256 -42.8921814 237.00667191 C-37.45586656 206.71762581 -32.03424152 176.42597766 -26.623106 146.1324234 C-25.43546356 139.48363848 -24.24744342 132.83492108 -23.05934143 126.18621826 C-22.47345028 122.907443 -21.8875625 119.62866714 -21.3016752 116.34989119 C-20.91431479 114.18212684 -20.52695081 112.01436312 -20.13958323 109.84660006 C-17.84946106 97.03051233 -15.56068368 84.21418592 -13.27383727 71.39751327 C-11.83686316 63.34466784 -10.39828163 55.2921106 -8.95845968 47.23977387 C-8.12399687 42.57260533 -7.29031795 37.90530004 -6.4586277 33.23763657 C-5.69583047 28.95663495 -4.9310009 24.67600174 -4.16452348 20.39565754 C-3.88640271 18.84036391 -3.60905319 17.28493214 -3.33252871 15.7293539 C-2.95788798 13.62244757 -2.58051306 11.51604918 -2.2024231 9.40975952 C-1.99288057 8.23609518 -1.78333805 7.06243084 -1.56744576 5.85320091 C-1 3 -1 3 0 0 Z M5 52 C5 54.31 5 56.62 5 59 C10.28 59 15.56 59 21 59 C21 56.69 21 54.38 21 52 C15.72 52 10.44 52 5 52 Z M39 52 C39 54.31 39 56.62 39 59 C44.28 59 49.56 59 55 59 C55 56.69 55 54.38 55 52 C49.72 52 44.44 52 39 52 Z M73 52 C73 54.31 73 56.62 73 59 C78.28 59 83.56 59 89 59 C89 56.69 89 54.38 89 52 C83.72 52 78.44 52 73 52 Z " fill="#FFFFFF" transform="translate(908,2)"/>
</svg>
