<?xml version="1.0" encoding="UTF-8"?>
<svg version="1.1" xmlns="http://www.w3.org/2000/svg" width="924" height="924">
<path d="M0 0 C0.99993988 0.14211914 0.99993988 0.14211914 2.02008057 0.28710938 C64.27258191 9.16400603 125.51341547 29.55875069 179 63 C180.26650391 63.77827148 180.26650391 63.77827148 181.55859375 64.57226562 C193.58326801 71.96616107 205.06745218 79.75279389 216.12744141 88.52441406 C218.44100428 90.34751367 220.78753558 92.1243455 223.13671875 93.90112305 C239.11369919 106.02167434 253.78087096 119.59357334 267.9465332 133.76123047 C269.69138808 135.50388317 271.44413743 137.23833163 273.19726562 138.97265625 C279.14149687 144.88745594 284.73935711 150.88409023 289.9597168 157.46240234 C291.94373007 159.93001439 294.0088732 162.28526065 296.1328125 164.6328125 C315.34733373 186.0487011 331.3557866 211.74661024 345 237 C345.49161621 237.90105469 345.98323242 238.80210937 346.48974609 239.73046875 C364.27417636 272.45792849 377.65587068 306.96584923 387 343 C387.41523926 344.59908203 387.41523926 344.59908203 387.83886719 346.23046875 C393.97305984 370.29367081 398.13298774 395.22822987 400 420 C400.08540039 421.09530029 400.17080078 422.19060059 400.25878906 423.3190918 C403.93622851 475.26786674 399.58829256 527.68843211 386 578 C385.74138184 578.96695801 385.48276367 579.93391602 385.21630859 580.93017578 C376.95847066 611.43114416 365.62467586 640.99152977 351.02441406 669.02490234 C349.91604414 671.16186914 348.82922643 673.30914156 347.7421875 675.45703125 C336.26700937 697.92281757 322.38973774 719.02998317 307 739 C306.58814453 739.53802246 306.17628906 740.07604492 305.75195312 740.63037109 C288.71946115 762.84304577 269.62987708 785.09899237 248.171875 803.1640625 C246.38428632 804.67515365 244.63443171 806.21269947 242.890625 807.7734375 C232.72201172 816.81984211 221.97858414 824.96643504 211 833 C209.76040669 833.91665317 208.52082234 834.83331847 207.28125 835.75 C126.37075616 895.06960313 26.39201144 922.63441214 -133.27366638 915.75402832 C-174.75938684 909.28957061 -214.67647193 897.04260825 -253 880 C-253.86173828 879.61875977 -254.72347656 879.23751953 -255.61132812 878.84472656 C-287.37470059 864.66965297 -317.78611806 845.62866374 -345 824 C-345.83273437 823.34902344 -346.66546875 822.69804688 -347.5234375 822.02734375 C-363.54119451 809.40493653 -378.4380466 795.63450533 -392.875 781.25 C-393.76711182 780.36256104 -394.65922363 779.47512207 -395.57836914 778.56079102 C-400.59281989 773.53410416 -405.39695045 768.40467918 -410 763 C-410.845625 762.03578125 -411.69125 761.0715625 -412.5625 760.078125 C-420.87956847 750.42819299 -428.46216074 740.2644669 -436 730 C-436.77512939 728.95682617 -436.77512939 728.95682617 -437.56591797 727.89257812 C-482.67044509 667.07003503 -510.49127809 592.8295072 -520 518 C-520.22647217 516.2687085 -520.22647217 516.2687085 -520.45751953 514.50244141 C-525.21989751 476.54212759 -525.09970582 436.91693467 -520 399 C-519.82839355 397.71657715 -519.65678711 396.4331543 -519.47998047 395.11083984 C-512.87611449 347.45559605 -498.89638539 301.3206944 -478 258 C-477.33315186 256.60273682 -477.33315186 256.60273682 -476.65283203 255.17724609 C-461.04025617 222.57736629 -441.26115523 191.24389971 -417.51953125 163.921875 C-415.06963657 161.08075683 -412.71786655 158.17959478 -410.375 155.25 C-406.86015677 150.92548753 -403.10658506 146.99914773 -399.1171875 143.11328125 C-397.14350902 141.14324424 -395.31272114 139.11762585 -393.5 137 C-387.88351835 130.4755421 -381.74309295 124.52465945 -375.20703125 118.9296875 C-373.05425534 117.04743741 -370.96408937 115.10729979 -368.87744141 113.15234375 C-362.49402557 107.19421236 -355.81282298 101.75183889 -348.88037109 96.44775391 C-346.9662837 94.97404081 -345.07016022 93.47940748 -343.17578125 91.98046875 C-323.94821601 76.87107784 -303.30412579 63.95703886 -282 52 C-280.89495117 51.37303223 -280.89495117 51.37303223 -279.76757812 50.73339844 C-231.47106515 23.47672085 -176.63429503 7.73645292 -122 0 C-120.26121582 -0.24991699 -120.26121582 -0.24991699 -118.48730469 -0.50488281 C-79.94588129 -5.75312288 -38.4904127 -5.59934321 0 0 Z " fill="#0E497B" transform="translate(523,3)"/>
<path d="M0 0 C3.87565055 0.01266451 7.75130558 0.01369005 11.62697363 0.01605082 C18.93625913 0.02222009 26.24548343 0.03856796 33.55474222 0.05874979 C41.88872881 0.08125219 50.22271862 0.09213795 58.55672812 0.10214067 C75.67279929 0.12293929 92.78881123 0.15802478 109.90483618 0.20278788 C109.76467665 2.2394358 109.61967288 4.27575062 109.47270727 6.31191874 C109.39249334 7.44592615 109.31227942 8.57993357 109.22963476 9.74830484 C108.72002292 15.16841915 107.63431334 20.44015924 106.52983618 25.76528788 C104.75580923 34.60235831 103.15134456 43.41880774 101.98149633 52.35732889 C101.36990965 56.82013897 100.46689886 61.12430719 99.35649633 65.49233866 C99.0850379 66.56428476 98.81357946 67.63623087 98.53389502 68.74066019 C98.3263056 69.55316233 98.11871618 70.36566446 97.90483618 71.20278788 C96.84825796 71.20498772 96.84825796 71.20498772 95.77033472 71.207232 C78.58288014 71.24438192 61.39563935 71.30350445 44.20834589 71.38669062 C35.8964796 71.42639724 27.58470683 71.45883207 19.2727561 71.47378397 C12.0229189 71.48684414 4.77328822 71.51391924 -2.47643262 71.55740094 C-6.31049562 71.57991832 -10.14430483 71.59570446 -13.97843981 71.59467173 C-17.59751556 71.59391929 -21.21603241 71.61210006 -24.83496332 71.64395571 C-26.77546292 71.65635215 -28.71605689 71.64943636 -30.65658045 71.64164591 C-44.59907525 71.80500542 -56.95558445 75.72737557 -67.34516382 85.26919413 C-80.25975158 98.94202473 -86.64960182 118.30801419 -86.44623804 136.88882303 C-86.10169476 147.5552085 -84.06198863 157.80609072 -77.09516382 166.20278788 C-67.7104709 174.68856385 -56.53950029 175.64917154 -44.38373804 175.63516092 C-43.03251749 175.64419643 -41.68130508 175.65452799 -40.3301034 175.66604471 C-36.69235965 175.69343126 -33.05477219 175.70287399 -29.41693878 175.70889878 C-25.60389946 175.71833068 -21.7909747 175.74453764 -17.97800684 175.76890421 C-10.77121344 175.81244122 -3.56444244 175.84106653 3.64244211 175.86422759 C11.85298323 175.89134821 20.06340837 175.93525526 28.27386642 175.98051631 C45.15079646 176.0731791 62.0277516 176.14494354 78.90483618 176.20278788 C77.80007221 187.81734591 75.81744258 198.90583393 72.90483618 210.20278788 C58.16028692 210.24985338 43.41574782 210.28494372 28.67113829 210.30641222 C21.82241673 210.31665268 14.97374229 210.33057152 8.12505102 210.35366678 C1.49845135 210.37600213 -5.12811277 210.3874034 -11.75475168 210.39254236 C-14.26530073 210.39619805 -16.77584754 210.4033347 -19.28637552 210.41424799 C-51.66419035 210.5492175 -88.10486491 210.07225943 -113.09516382 186.20278788 C-126.50395126 171.35902494 -127.76602372 154.1711673 -127.09516382 135.20278788 C-125.96801321 120.35660407 -121.57243349 104.584196 -115.09516382 91.20278788 C-114.59371851 90.15993631 -114.0922732 89.11708475 -113.57563257 88.04263163 C-102.47349105 66.22835355 -85.61990573 51.24982705 -62.70063257 42.52700663 C-49.99756443 38.55623093 -37.52881182 37.774156 -24.34516382 37.90981913 C-22.70893737 37.91543396 -21.07270578 37.91969509 -19.43647242 37.92268229 C-15.18848022 37.93398291 -10.94080969 37.96331716 -6.69294214 37.99679422 C-2.33487276 38.02781943 2.02325003 38.041256 6.38139868 38.0563035 C14.88935664 38.08820566 23.39705609 38.13921594 31.90483618 38.20278788 C31.90483618 36.55278788 31.90483618 34.90278788 31.90483618 33.20278788 C23.03688974 33.28779144 14.16912218 33.3828966 5.30141878 33.49031496 C1.18219714 33.53990793 -2.93700333 33.5862356 -7.05634546 33.62466288 C-11.0441071 33.66199017 -15.03167348 33.70846633 -19.0192647 33.76085138 C-20.52797382 33.77914711 -22.03672438 33.7943427 -23.54549837 33.80613184 C-53.02697176 34.04437066 -78.21936758 41.1634886 -100.22016382 61.82778788 C-114.3213961 76.47224579 -122.14216416 94.77441225 -127.09516382 114.20278788 C-127.29271265 114.93980936 -127.49026148 115.67683084 -127.69379663 116.43618631 C-132.31268777 133.92144851 -134.07639221 153.13031346 -127.09516382 170.20278788 C-126.45901148 171.76706522 -126.45901148 171.76706522 -125.81000757 173.36294413 C-118.09191052 190.3685563 -103.14235792 200.72391205 -86.09516382 207.20278788 C-72.35824816 211.92935517 -58.12823019 213.49460456 -43.66401148 213.52163553 C-42.4037565 213.53168116 -41.14350153 213.54172678 -39.84505701 213.55207682 C-36.43898231 213.57901599 -33.03294805 213.59441694 -29.62679577 213.60750484 C-26.04869032 213.6232962 -22.47066569 213.65003394 -18.89261866 213.67553568 C-12.13929073 213.72204358 -5.38594712 213.75892169 1.36745751 213.79220855 C9.06538862 213.83062963 16.763238 213.87998634 24.46109986 213.93019271 C40.27561928 214.03309546 56.09018483 214.12248922 71.90483618 214.20278788 C71.97696921 218.83039907 71.63824684 222.82532681 70.5461936 227.33120584 C69.68045522 231.20742007 69.00901194 235.11037538 68.33061743 239.02310038 C68.12402502 240.20464701 68.12402502 240.20464701 67.91325903 241.41006327 C67.57586409 243.34075275 67.24017809 245.27174074 66.90483618 247.20278788 C48.0320443 247.27313218 29.15927933 247.32589981 10.28638315 247.35822439 C1.52170485 247.37363782 -7.2428916 247.39462053 -16.00751734 247.42910624 C-23.65428384 247.459179 -31.300991 247.47840292 -38.947815 247.48505336 C-42.98993555 247.48893562 -47.03188647 247.49794147 -51.0739522 247.51997805 C-82.6462514 247.68526628 -113.34758197 245.04728801 -138.09516382 223.20278788 C-139.12641382 222.41903788 -140.15766382 221.63528788 -141.22016382 220.82778788 C-153.0010744 210.0713043 -160.72203727 195.39283522 -165.09516382 180.20278788 C-165.35410425 179.30479471 -165.61304468 178.40680155 -165.87983179 177.48159647 C-168.29803978 168.24752325 -168.65319072 159.43043068 -168.59516382 149.95278788 C-168.5930691 149.16587564 -168.59097437 148.37896341 -168.58881617 147.56820536 C-168.35567952 104.86642206 -151.52523817 67.67647124 -121.63813257 37.74185038 C-87.99586602 5.94070289 -44.33264084 -0.16977138 0 0 Z " fill="#FDFDFD" transform="translate(300.0951638221741,337.79721212387085)"/>
<path d="M0 0 C1.17960121 0.00056958 1.17960121 0.00056958 2.38303274 0.00115067 C3.28722324 -0.00084038 4.19141374 -0.00283143 5.12300396 -0.00488281 C6.63026811 -0.00051355 6.63026811 -0.00051355 8.16798204 0.00394398 C9.22647653 0.00308955 10.28497101 0.00223513 11.37554109 0.00135481 C14.95171148 -0.00030314 18.52783581 0.00522652 22.10400194 0.01067311 C24.65584112 0.01095494 27.20768038 0.01079733 29.75951952 0.0102306 C35.26853906 0.01000228 40.77754355 0.01285379 46.28656 0.01846844 C54.25175896 0.0265811 62.21695218 0.02919842 70.18215483 0.03045643 C83.10386101 0.03264732 96.0255609 0.0393084 108.94726366 0.04875904 C121.50260188 0.05793221 134.05793839 0.06501351 146.61327928 0.06926686 C147.38664841 0.06952958 148.16001755 0.0697923 148.9568221 0.07006299 C152.83642591 0.07136799 156.71602974 0.0726317 160.59563357 0.07387489 C192.80212226 0.08424865 225.00860322 0.10186797 257.21508592 0.1241985 C257.07895891 0.9346613 256.9428319 1.74512409 256.80257982 2.58014637 C256.62336992 3.65050633 256.44416002 4.72086628 256.25951952 5.82366139 C256.0821425 6.88162419 255.90476549 7.93958699 255.72201341 9.02960926 C255.16627436 12.42217353 254.66364863 15.81973237 254.17602342 19.22258717 C252.78869746 28.88244916 251.06826761 38.45018976 249.19555467 48.02654225 C248.09214821 53.68838993 247.10681966 59.36944299 246.1662578 65.06047779 C245.32290803 70.01637639 245.32290803 70.01637639 244.21508592 71.1241985 C241.41518873 71.21939217 238.64002418 71.24973794 235.83984178 71.23772389 C234.52289072 71.23794293 234.52289072 71.23794293 233.17933458 71.23816639 C230.26284157 71.23746694 227.34641159 71.22967305 224.42992967 71.22185475 C222.413537 71.21999068 220.39714388 71.21856672 218.3807506 71.21756703 C213.06243455 71.21374094 207.74414562 71.20390988 202.42584032 71.19286305 C197.00337904 71.18265087 191.58091341 71.17806982 186.1584453 71.17302662 C175.5106469 71.1622877 164.86286866 71.14521019 154.21508592 71.1241985 C154.15042131 71.79010502 154.0857567 72.45601155 154.01913255 73.14209706 C153.93217119 74.02669102 153.84520983 74.91128498 153.75561327 75.82268482 C153.67032366 76.69484135 153.58503404 77.56699787 153.4971599 78.46558338 C153.05867103 82.5984465 152.4631694 86.70317813 151.84008592 90.8116985 C151.64273851 92.11904957 151.64273851 92.11904957 151.44140428 93.45281178 C150.48704083 99.64509021 149.34538757 105.77923604 148.06493944 111.91301686 C147.1041508 116.60307049 146.25191394 121.31132473 145.40258592 126.022636 C145.2302997 126.97442738 145.05801347 127.92621876 144.88050646 128.9068523 C144.51296778 130.93807121 144.14583631 132.96936383 143.77908128 135.00072438 C143.2188976 138.10308896 142.65744994 141.20522243 142.09570116 144.30730397 C141.13938257 149.59030016 140.1855605 154.87374316 139.23290819 160.15740162 C138.84471901 162.30918146 138.45604387 164.4608737 138.06689256 166.61247975 C135.6876841 179.76821998 133.36770343 192.92940257 131.21508592 206.1241985 C131.05693407 207.09147877 130.89878221 208.05875904 130.73583788 209.05535084 C130.48584198 210.58648029 130.23605231 212.11764344 129.9865703 213.6488567 C128.91425298 220.19171681 127.75559608 226.67331221 126.21508592 233.1241985 C125.22508592 237.4141985 124.23508592 241.7041985 123.21508592 246.1241985 C97.14508592 246.1241985 71.07508592 246.1241985 44.21508592 246.1241985 C45.33928349 231.50963017 45.33928349 231.50963017 46.56274217 225.1241985 C46.69478044 224.42245503 46.82681871 223.72071156 46.96285814 222.99770314 C47.24691094 221.49143224 47.53399776 219.98573069 47.82394212 218.48058277 C48.62787589 214.3046701 49.40758495 210.12419128 50.19164842 205.944511 C50.35730806 205.06497761 50.5229677 204.18544422 50.69364733 203.27925831 C52.58775718 193.19912425 54.3695249 183.09944993 56.15258592 172.9991985 C58.88037765 157.57454887 61.65276406 142.15865786 64.46508592 126.7491985 C66.8398509 113.73607387 69.19365174 100.72125509 71.42602342 87.68279225 C72.32466675 82.49112509 73.2725622 77.30807896 74.21508592 72.1241985 C44.84508592 71.7941985 15.47508592 71.4641985 -14.78491408 71.1241985 C-13.65994391 62.1244372 -13.65994391 62.1244372 -12.98462111 58.35491139 C-12.8342137 57.50945256 -12.68380629 56.66399372 -12.52884108 55.79291493 C-12.36842329 54.90321507 -12.20800551 54.01351521 -12.04272658 53.09685475 C-11.87368819 52.14967076 -11.70464979 51.20248677 -11.53048903 50.22660023 C-10.99223698 47.21294896 -10.45115752 44.1998138 -9.90991408 41.1866985 C-9.37813315 38.21488175 -8.8469306 35.24296212 -8.3158589 32.27101856 C-7.96904382 30.33241897 -7.6214372 28.3939608 -7.27301222 26.45564991 C-6.46363233 21.94919879 -5.66385212 17.44166641 -4.89331251 12.92839772 C-4.75666182 12.13340367 -4.62001112 11.33840962 -4.4792195 10.51932484 C-4.2259379 9.04102887 -3.97586103 7.56217899 -3.72952467 6.08270985 C-2.71633399 0.18900887 -2.71633399 0.18900887 0 0 Z " fill="#FDFDFD" transform="translate(425.7849140763283,338.8758015036583)"/>
<path d="M0 0 C0.73511307 0.00359528 1.47022614 0.00719055 2.22761536 0.01089478 C2.99829346 0.01074875 3.76897156 0.01060272 4.56300354 0.01045227 C7.12237823 0.01115157 9.68168104 0.01894471 12.24104309 0.02676392 C14.01081299 0.02862804 15.7805834 0.03005197 17.550354 0.03105164 C22.2176505 0.03487728 26.88491607 0.04470796 31.55220032 0.05575562 C36.31110719 0.06596873 41.07001905 0.07054904 45.82893372 0.07559204 C55.17334837 0.08633019 64.51774004 0.10340717 73.86213684 0.12442017 C73.9017342 4.68908978 73.6955283 8.80330638 72.76838684 13.27676392 C72.5428009 14.38213501 72.31721497 15.4875061 72.08479309 16.62637329 C71.72707825 18.32696899 71.72707825 18.32696899 71.36213684 20.06192017 C71.12366028 21.22272095 70.88518372 22.38352173 70.63948059 23.57949829 C70.0531371 26.42912768 69.46052539 29.27730017 68.86213684 32.12442017 C66.22213684 32.12442017 63.58213684 32.12442017 60.86213684 32.12442017 C60.86213684 33.77442017 60.86213684 35.42442017 60.86213684 37.12442017 C63.17213684 37.12442017 65.48213684 37.12442017 67.86213684 37.12442017 C65.97476597 51.23963303 63.65323124 65.22919908 61.01774597 79.22317505 C60.00481588 84.60496879 59.00653577 89.98946357 58.01057434 95.37442017 C57.81829758 96.41390808 57.62602081 97.453396 57.42791748 98.52438354 C55.85340974 107.08090962 54.43174219 115.65190746 53.10627747 124.25064087 C51.4464231 134.96989624 49.34661044 145.5982098 47.24787903 156.23867798 C44.91449422 168.08972344 42.66194994 179.91409382 40.95124817 191.8722229 C39.57656899 201.355309 37.70023464 210.71768436 35.86213684 220.12442017 C34.21213684 228.70442017 32.56213684 237.28442017 30.86213684 246.12442017 C4.46213684 246.12442017 -21.93786316 246.12442017 -49.13786316 246.12442017 C-47.93305893 236.48598633 -46.7097267 227.06464312 -44.89567566 217.55801392 C-44.6860318 216.43661514 -44.47638794 215.31521637 -44.26039124 214.15983582 C-43.59904424 210.62633534 -42.93132652 207.09408058 -42.26286316 203.56192017 C-41.38826931 198.91519592 -40.51637953 194.26796852 -39.64567566 189.62051392 C-39.43146973 188.47875702 -39.21726379 187.33700012 -38.99656677 186.16064453 C-37.45973359 177.93618684 -35.99978708 169.70056103 -34.58052063 161.45509338 C-32.99656241 152.26034672 -31.32681151 143.08203187 -29.64665222 133.90444946 C-27.28221567 120.9851409 -24.92426101 108.06594107 -22.70939636 95.12002563 C-21.633812 88.87739589 -20.50849997 82.64457164 -19.36833191 76.41348267 C-19.20507919 75.52101334 -19.04182648 74.62854401 -18.87362671 73.70903015 C-18.18478986 69.9443824 -17.49583484 66.17975656 -16.80604553 62.4152832 C-14.84229807 51.68653062 -12.91882988 40.952796 -11.09880066 30.19863892 C-10.93722977 29.24432983 -10.77565887 28.29002075 -10.60919189 27.30679321 C-9.83521915 22.72453196 -9.06805706 18.14122404 -8.30851746 13.55654907 C-8.03421853 11.91901086 -7.75988769 10.281478 -7.48551941 8.64395142 C-7.36296783 7.89199997 -7.24041626 7.14004852 -7.114151 6.36531067 C-6.12431411 0.48585356 -6.00668351 0.01239643 0 0 Z " fill="#FDFEFE" transform="translate(701.1378631591797,338.8755798339844)"/>
<path d="M0 0 C3.63 0 7.26 0 11 0 C11 1.65 11 3.3 11 5 C7.37 5 3.74 5 0 5 C0 3.35 0 1.7 0 0 Z " fill="#1D5483" transform="translate(468,371)"/>
<path d="M0 0 C3.63 0 7.26 0 11 0 C11 1.65 11 3.3 11 5 C7.37 5 3.74 5 0 5 C0 3.35 0 1.7 0 0 Z " fill="#1E5584" transform="translate(447,371)"/>
<path d="M0 0 C3.63 0 7.26 0 11 0 C11 1.65 11 3.3 11 5 C7.37 5 3.74 5 0 5 C0 3.35 0 1.7 0 0 Z " fill="#1E5584" transform="translate(426,371)"/>
<path d="M0 0 C3.63 0 7.26 0 11 0 C11 1.65 11 3.3 11 5 C7.37 5 3.74 5 0 5 C0 3.35 0 1.7 0 0 Z " fill="#1E5584" transform="translate(384,371)"/>
<path d="M0 0 C3.63 0 7.26 0 11 0 C11 1.65 11 3.3 11 5 C7.37 5 3.74 5 0 5 C0 3.35 0 1.7 0 0 Z " fill="#1E5584" transform="translate(363,371)"/>
<path d="M0 0 C3.63 0 7.26 0 11 0 C11 1.65 11 3.3 11 5 C7.37 5 3.74 5 0 5 C0 3.35 0 1.7 0 0 Z " fill="#1E5584" transform="translate(342,371)"/>
<path d="M0 0 C3.3 0 6.6 0 10 0 C10 1.65 10 3.3 10 5 C6.7 5 3.4 5 0 5 C0 3.35 0 1.7 0 0 Z " fill="#0E497B" transform="translate(741,371)"/>
<path d="M0 0 C3.3 0 6.6 0 10 0 C10 1.65 10 3.3 10 5 C6.7 5 3.4 5 0 5 C0 3.35 0 1.7 0 0 Z " fill="#0E497B" transform="translate(720,371)"/>
<path d="M0 0 C3.3 0 6.6 0 10 0 C10 1.65 10 3.3 10 5 C6.7 5 3.4 5 0 5 C0 3.35 0 1.7 0 0 Z " fill="#0E497B" transform="translate(699,371)"/>
<path d="M0 0 C3.3 0 6.6 0 10 0 C10 1.65 10 3.3 10 5 C6.7 5 3.4 5 0 5 C0 3.35 0 1.7 0 0 Z " fill="#0E497B" transform="translate(657,371)"/>
<path d="M0 0 C3.3 0 6.6 0 10 0 C10 1.65 10 3.3 10 5 C6.7 5 3.4 5 0 5 C0 3.35 0 1.7 0 0 Z " fill="#0E497B" transform="translate(636,371)"/>
<path d="M0 0 C3.3 0 6.6 0 10 0 C10 1.65 10 3.3 10 5 C6.7 5 3.4 5 0 5 C0 3.35 0 1.7 0 0 Z " fill="#0E497B" transform="translate(615,371)"/>
<path d="M0 0 C3.3 0 6.6 0 10 0 C10 1.65 10 3.3 10 5 C6.7 5 3.4 5 0 5 C0 3.35 0 1.7 0 0 Z " fill="#0E497B" transform="translate(594,371)"/>
<path d="M0 0 C3.3 0 6.6 0 10 0 C10 1.65 10 3.3 10 5 C6.7 5 3.4 5 0 5 C0 3.35 0 1.7 0 0 Z " fill="#0E497B" transform="translate(573,371)"/>
<path d="M0 0 C3.3 0 6.6 0 10 0 C10 1.65 10 3.3 10 5 C6.7 5 3.4 5 0 5 C0 3.35 0 1.7 0 0 Z " fill="#0E497B" transform="translate(552,371)"/>
<path d="M0 0 C3.3 0 6.6 0 10 0 C10 1.65 10 3.3 10 5 C6.7 5 3.4 5 0 5 C0 3.35 0 1.7 0 0 Z " fill="#0E497B" transform="translate(531,371)"/>
<path d="M0 0 C3.3 0 6.6 0 10 0 C10 1.65 10 3.3 10 5 C6.7 5 3.4 5 0 5 C0 3.35 0 1.7 0 0 Z " fill="#0E497B" transform="translate(510,371)"/>
<path d="M0 0 C3.3 0 6.6 0 10 0 C10 1.65 10 3.3 10 5 C6.7 5 3.4 5 0 5 C0 3.35 0 1.7 0 0 Z " fill="#0E497B" transform="translate(489,371)"/>
</svg>
